<?xml version="1.0" encoding="utf-8"?>
<!-- Generator: Adobe Illustrator 20.0.0, SVG Export Plug-In . SVG Version: 6.00 Build 0)  -->
<svg version="1.1" id="图层_1" xmlns="http://www.w3.org/2000/svg" xmlns:xlink="http://www.w3.org/1999/xlink" x="0px" y="0px"
	 viewBox="0 0 100 100" style="enable-background:new 0 0 100 100;" xml:space="preserve">
<style type="text/css">
	.st0{fill:#E98C65;}
	.st1{fill:#FFFFFF;}
</style>
<circle class="st0" cx="49.7" cy="50.8" r="46.5"/>
<path class="st1" d="M76.8,58c-2.3-3.4-5.5-5.9-9.1-7.3c1.6-1.1,3-2.6,3.9-4.4c1.1-2,1.7-4.4,1.7-6.7c0-7.4-5.7-13.4-12.7-13.4
	c-1,0-1.8,0.8-1.8,1.8c0,1,0.8,1.8,1.8,1.8c5,0,9.1,4.4,9.1,9.8s-4.1,9.8-9.1,9.8c-1,0-1.8,0.8-1.8,1.8v0c0,1,0.8,1.8,1.8,1.8
	c9,0,16.4,7.8,16.4,17.5c0,1,0.8,1.8,1.8,1.8c1,0,1.8-0.8,1.8-1.8C80.7,66,79.3,61.7,76.8,58L76.8,58L76.8,58z M58.1,54.9
	c-1.9-1.3-4-2.4-6.2-3.2c4.6-2.8,7.5-7.8,7.5-13.2c0-8.5-6.9-15.5-15.5-15.5S28.5,30,28.5,38.6c0,2.9,0.8,5.7,2.4,8.2
	c1.3,2.1,3.1,3.8,5.2,5.1c-2.2,0.8-4.3,1.8-6.3,3.2c-2.1,1.5-3.9,3.3-5.5,5.3c-3.2,4.3-4.9,9.4-4.9,14.7c0,1,0.8,1.8,1.8,1.8
	c1,0,1.8-0.8,1.8-1.8c0-5.6,2.2-10.8,6.1-14.8c3.9-4,9.2-6.1,14.7-6.1c0.2,0,0.4,0,0.5,0l0.1,0c5.4,0.1,10.5,2.3,14.3,6.1
	c4,4,6.1,9.2,6.1,14.8c0,1,0.8,1.8,1.8,1.8c1,0,1.8-0.8,1.8-1.8c0-5.4-1.7-10.4-4.9-14.7C62.1,58.2,60.2,56.4,58.1,54.9L58.1,54.9
	L58.1,54.9z M44,26.7c6.5,0,11.9,5.3,11.9,11.9c0,6.5-5.3,11.9-11.9,11.9c-6.5,0-11.9-5.3-11.9-11.9C32.1,32,37.4,26.7,44,26.7z"/>
<g>
</g>
<g>
</g>
<g>
</g>
<g>
</g>
<g>
</g>
<g>
</g>
</svg>
