<?xml version="1.0" standalone="no"?><!DOCTYPE svg PUBLIC "-//W3C//DTD SVG 1.1//EN" "http://www.w3.org/Graphics/SVG/1.1/DTD/svg11.dtd"><svg t="1481108163071" class="icon" style="" viewBox="0 0 1024 1024" version="1.1" xmlns="http://www.w3.org/2000/svg" p-id="6227" xmlns:xlink="http://www.w3.org/1999/xlink" width="200" height="200"><defs><style type="text/css"></style></defs><path d="M716.8 128 716.8 76.8c0-45.237248-41.444352-76.8-87.5776-76.8L420.380672 0C374.2464 0 332.8 31.562752 332.8 76.8l0 51.2L102.4 128l0 51.2 51.2 0 25.6 768c0 45.24032 56.266752 76.8 102.4 76.8l474.231808 0C801.96608 1024 844.8 992.44032 844.8 947.2l25.6-768 51.2 0 0-51.2L716.8 128zM384 102.4c0-32.9984 17.79712-51.2 51.2-51.2l179.2 0c32.64512 0 51.2 14.199808 51.2 51.2l0 25.6L384 128 384 102.4zM793.6 921.6c0 22.560768-10.554368 52.799488-51.2 51.2L281.6 972.8c-29.40416 0-51.2-6.239232-51.2-51.2l0 25.6-25.6-768 614.4 0L793.6 921.6zM537.6 256l-51.2 0 0 640 51.2 0L537.6 256zM384 896l-25.6-640-51.2 0 25.6 640L384 896zM716.8 256l-51.2 0-25.6 640 51.2 0L716.8 256z" p-id="6228"></path></svg>