<?xml version="1.0" standalone="no"?><!DOCTYPE svg PUBLIC "-//W3C//DTD SVG 1.1//EN" "http://www.w3.org/Graphics/SVG/1.1/DTD/svg11.dtd"><svg t="1481108285992" class="icon" style="" viewBox="0 0 1024 1024" version="1.1" xmlns="http://www.w3.org/2000/svg" p-id="10030" xmlns:xlink="http://www.w3.org/1999/xlink" width="200" height="200"><defs><style type="text/css"></style></defs><path d="M829.44 846.848H194.56l-4.608-26.112c-1.536-10.24-3.072-22.016-3.072-32.256V387.584c0-143.36 141.824-310.272 324.608-310.272s324.608 166.912 324.608 310.272v402.432c0 10.24-1.536 20.48-3.072 32.256l-3.584 24.576zM248.832 786.944h526.848v-399.36c0-112.64-117.248-250.368-263.168-250.368S248.832 273.408 248.832 387.584v399.36z m655.36 64.512H119.808c-8.704 0-14.848-5.632-14.848-14.848v-30.72c0-8.704 5.632-14.848 14.848-14.848h782.848c8.704 0 14.848 5.632 14.848 14.848v30.72c1.024 8.704-6.144 14.848-13.312 14.848zM512 1013.76c-59.904 0-109.568-49.664-109.568-109.568v-108.032h219.648v108.032c-0.512 61.44-50.176 109.568-110.08 109.568z m-49.664-156.672v46.592c0 27.648 22.016 49.664 49.664 49.664s49.664-22.016 49.664-49.664v-46.592H462.336zM481.28 40.96c1.536-8.704 6.656-30.72 30.208-30.72 24.064 0 28.16 22.016 29.696 30.72v80.384H481.28V40.96z" p-id="10031"></path></svg>