<?xml version="1.0" encoding="utf-8"?>
<!-- Generator: Adobe Illustrator 20.0.0, SVG Export Plug-In . SVG Version: 6.00 Build 0)  -->
<svg version="1.1" id="图层_1" xmlns="http://www.w3.org/2000/svg" xmlns:xlink="http://www.w3.org/1999/xlink" x="0px" y="0px"
	 viewBox="0 0 400 170" style="enable-background:new 0 0 400 170;" xml:space="preserve">
<style type="text/css">
	.st0{fill:#D6D7E8;}
</style>
<g>
	<path class="st0" d="M117.8,149.5c-2.7,0-4.5-0.5-5.5-1.4c-1-0.9-1.5-2.5-1.5-4.6v-22.6h-51c-4.4,0-6.9-1.8-7.7-5.3
		c-0.2-1.7-0.1-3.7,0.5-6c0.6-2.3,2-5.2,4.2-8.6l39.5-61.2c3.4-5.5,6.6-9.6,9.7-12.4c3-2.8,7-4.9,12-6.4c2.4,0,4.2,0.8,5.2,2.5
		c1,1.6,1.5,4.8,1.5,9.4v74.9h8.4c3.4,0,5.1,2.2,5.1,6.6c0,4.4-1.7,6.6-5.1,6.6h-8.4v22.6c0,2.4-0.5,4-1.5,4.8
		C122.5,149.1,120.6,149.5,117.8,149.5z M110.9,107.8v-68l-42.8,68H110.9z"/>
	<path class="st0" d="M197.5,21c7.7,0,14.2,1.7,19.5,5.2c5.3,3.5,9.7,8.2,13,14.1c3.3,6,5.8,12.8,7.3,20.6c1.5,7.8,2.3,16,2.3,24.6
		c0,8.6-0.9,16.8-2.6,24.6c-1.7,7.8-4.3,14.6-7.8,20.4c-3.5,5.8-7.9,10.5-13.2,13.9c-5.3,3.5-11.5,5.2-18.7,5.2
		c-7.2,0-13.4-1.7-18.6-5.1c-5.2-3.4-9.6-8-13-13.8c-3.5-5.8-6-12.5-7.7-20.2c-1.7-7.7-2.6-15.9-2.6-24.5c0-8.6,0.8-16.9,2.4-24.8
		c1.6-7.9,4-14.8,7.4-20.8c3.3-6,7.7-10.7,13-14.2C183.5,22.8,189.9,21,197.5,21z M197.5,135.6c5.2,0,9.6-1.5,13.1-4.5
		c3.5-3,6.4-6.8,8.6-11.6c2.2-4.7,3.8-10.1,4.7-16c1-6,1.5-11.9,1.5-17.9c0-6.1-0.5-12.2-1.5-18.4c-1-6.2-2.6-11.8-4.8-16.8
		c-2.2-5-5.1-9-8.7-12.2c-3.5-3.2-7.8-4.7-12.9-4.7c-5.1,0-9.4,1.5-13,4.6c-3.6,3.1-6.5,7.2-8.7,12.2c-2.2,5-3.8,10.7-4.8,16.9
		c-1,6.3-1.5,12.5-1.5,18.7c0,6.2,0.5,12.2,1.5,18.1c1,5.9,2.6,11.2,4.7,15.9c2.2,4.7,5.1,8.4,8.7,11.3
		C187.8,134.2,192.2,135.6,197.5,135.6z"/>
	<path class="st0" d="M321.6,149.5c-2.7,0-4.5-0.5-5.5-1.4c-1-0.9-1.5-2.5-1.5-4.6v-22.6h-51c-4.4,0-6.9-1.8-7.7-5.3
		c-0.2-1.7-0.1-3.7,0.5-6c0.6-2.3,2-5.2,4.2-8.6l39.5-61.2c3.4-5.5,6.6-9.6,9.7-12.4c3-2.8,7-4.9,12-6.4c2.4,0,4.2,0.8,5.2,2.5
		c1,1.6,1.5,4.8,1.5,9.4v74.9h8.4c3.4,0,5.1,2.2,5.1,6.6c0,4.4-1.7,6.6-5.1,6.6h-8.4v22.6c0,2.4-0.5,4-1.5,4.8
		C326.2,149.1,324.4,149.5,321.6,149.5z M314.6,107.8v-68l-42.8,68H314.6z"/>
</g>
<g>
</g>
<g>
</g>
<g>
</g>
<g>
</g>
<g>
</g>
<g>
</g>
</svg>
