<?xml version="1.0" encoding="utf-8"?>
<!-- Generator: Adobe Illustrator 20.0.0, SVG Export Plug-In . SVG Version: 6.00 Build 0)  -->
<svg version="1.1" id="图层_1" xmlns="http://www.w3.org/2000/svg" xmlns:xlink="http://www.w3.org/1999/xlink" x="0px" y="0px"
	 viewBox="0 0 100 100" style="enable-background:new 0 0 100 100;" xml:space="preserve">
<style type="text/css">
	.st0{fill:#55B232;}
	.st1{fill:#FFFFFF;}
</style>
<circle class="st0" cx="49.7" cy="50.8" r="46.5"/>
<g>
	<path class="st1" d="M80,49.7L64.7,30.5c-0.4-0.4-0.8-0.8-1.5-0.8H36.3c-0.8,0-1.1,0.4-1.5,0.8L19.5,49.7c-0.4,0.4-0.4,0.8-0.4,1.1
		V68c0,2.3,1.5,3.8,3.8,3.8h53.6c2.3,0,3.8-1.5,3.8-3.8V50.8C80.4,50.4,80.4,50.1,80,49.7z M76.5,52.7H63.1l-7.7,7.7H44l-7.7-7.7
		H22.9v-1.1l14.2-18H62l14.2,18L76.5,52.7L76.5,52.7z"/>
	<path class="st1" d="M63.1,41.2H36.3c-1.1,0-1.9-0.8-1.9-1.9s0.8-1.9,1.9-1.9h26.8c1.1,0,1.9,0.8,1.9,1.9S64.3,41.2,63.1,41.2z"/>
	<path class="st1" d="M67,48.9H32.5c-1.1,0-1.9-0.8-1.9-1.9s0.8-1.9,1.9-1.9H67c1.1,0,1.9,0.8,1.9,1.9S68.1,48.9,67,48.9z"/>
</g>
<g>
</g>
<g>
</g>
<g>
</g>
<g>
</g>
<g>
</g>
<g>
</g>
</svg>
