<?xml version="1.0" encoding="utf-8"?>
<!-- Generator: Adobe Illustrator 20.0.0, SVG Export Plug-In . SVG Version: 6.00 Build 0)  -->
<svg version="1.1" id="图层_1" xmlns="http://www.w3.org/2000/svg" xmlns:xlink="http://www.w3.org/1999/xlink" x="0px" y="0px"
	 viewBox="0 0 100 100" style="enable-background:new 0 0 100 100;" xml:space="preserve">
<style type="text/css">
	.st0{fill:#4E8AC9;}
	.st1{fill:#FFFFFF;}
</style>
<circle class="st0" cx="49.7" cy="50.8" r="46.5"/>
<g>
	<path class="st1" d="M75,32.5c0.5-0.4,0.5-1.2,0-1.7L63.8,19.5c-0.4-0.5-1.2-0.5-1.7,0L55,26.6l12.8,13L75,32.5L75,32.5z"/>
	<path class="st1" d="M34.7,70.4c0.4,0.5,0.1,0.1,0.8,0.8l30.5-30l-12.8-13l-30.5,30c0.8,0.8,0.4,0.4,0.8,0.8L34.7,70.4L34.7,70.4z"
		/>
	<path class="st1" d="M21,59.7L19.6,74L34,72.9L21,59.7z"/>
	<path class="st1" d="M19.6,77.6h60.7v3.2H19.6L19.6,77.6L19.6,77.6z"/>
</g>
<g>
</g>
<g>
</g>
<g>
</g>
<g>
</g>
<g>
</g>
<g>
</g>
</svg>
